<svg xmlns="http://www.w3.org/2000/svg" viewBox="0 0 32 32"><title>folder_type_coverage</title><path d="M27.5,5.5H18.2L16.1,9.7H4.4V26.5H29.6V5.5Zm0,4.2H19.3l1.1-2.1h7.1Z" style="fill:#c09553"/><rect width="17.023" height="17.581" x="13.728" y="10.867" style="fill:#ffebe3"/><rect width="4.465" height="7.814" x="14.007" y="11.146" style="fill:#f20"/><rect width="6.411" height="12.349" x="18.805" y="11.146" style="fill:#00a302"/><rect width="4.465" height="8.83" x="14.007" y="19.312" style="fill:#f9ff16"/><rect width="4.846" height="3.907" x="25.588" y="11.146" style="fill:#f9ff16"/><rect width="2.628" height="2.628" x="25.588" y="15.405" style="fill:#f20"/><rect width="4.846" height="3.558" x="25.588" y="18.406" style="fill:#00a302"/><rect width="1.992" height="2.628" x="28.442" y="15.405" style="fill:#00a302"/><rect width="4.595" height="4.356" x="18.805" y="23.787" style="fill:#f20"/><rect width="1.62" height="3.558" x="23.596" y="23.787" style="fill:#00a302"/><rect width="4.846" height=".583" x="23.596" y="27.559" style="fill:#f9ff16"/><rect width="1.992" height="1.584" x="28.442" y="22.144" style="fill:#f20"/><rect width="2.628" height="1.584" x="25.588" y="22.144" style="fill:#f20"/><rect width="1.992" height="1.992" x="25.588" y="23.982" style="fill:#f20"/><rect width="2.69" height="2.628" x="27.744" y="23.982" style="fill:#00a302"/><rect width="1.992" height="1.116" x="25.588" y="26.228" style="fill:#00a302"/><rect width="1.741" height="1.331" x="28.604" y="26.786" style="fill:#00a302"/><rect width=".698" height=".583" x="27.744" y="26.761" style="fill:#f9ff16"/></svg>