<svg xmlns="http://www.w3.org/2000/svg" xmlns:xlink="http://www.w3.org/1999/xlink" viewBox="0 0 32 32"><defs><radialGradient id="a" cx="19.64" cy="19.72" r="15.24" gradientUnits="userSpaceOnUse"><stop offset="0" stop-color="#138fce"/><stop offset=".857" stop-color="#385eaa"/><stop offset=".929" stop-color="#3265af"/></radialGradient></defs><title>folder_type_blueprint_opened</title><path d="M27.9,6H18.2l-2,4H5V27H30V6ZM28,24H7V12H28Zm.1-14H20.3l1-2H28Z" style="fill:#7b9ddb"/><polygon points="25.9 14 .3 14 4.1 27 29.7 27 25.9 14" style="fill:#7b9ddb"/><rect width="20" height="20" x="11" y="11" style="fill:url(#a)"/><g style="opacity:.23"><rect width=".357" height="20" x="13.679" y="11" style="fill:#fff"/><rect width=".357" height="20" x="16.536" y="11" style="fill:#fff"/><rect width=".357" height="20" x="19.393" y="11" style="fill:#fff"/><rect width=".357" height="20" x="22.25" y="11" style="fill:#fff"/><rect width=".357" height="20" x="25.107" y="11" style="fill:#fff"/><rect width=".357" height="20" x="27.964" y="11" style="fill:#fff"/><rect width="20" height=".357" x="11" y="13.679" style="fill:#fff"/><rect width="20" height=".357" x="11" y="16.536" style="fill:#fff"/><rect width="20" height=".357" x="11" y="19.393" style="fill:#fff"/><rect width="20" height=".357" x="11" y="22.25" style="fill:#fff"/><rect width="20" height=".357" x="11" y="25.107" style="fill:#fff"/><rect width="20" height=".357" x="11" y="27.964" style="fill:#fff"/></g></svg>